<svg width="1200" height="800" viewBox="0 0 1200 800" fill="none" xmlns="http://www.w3.org/2000/svg">
  <defs>
    <linearGradient id="bg" x1="116" y1="84" x2="1044" y2="724" gradientUnits="userSpaceOnUse">
      <stop stop-color="#08111F"/>
      <stop offset="1" stop-color="#0E1A2E"/>
    </linearGradient>
    <linearGradient id="accent" x1="208" y1="152" x2="921" y2="662" gradientUnits="userSpaceOnUse">
      <stop stop-color="#4F8CFF"/>
      <stop offset="1" stop-color="#79C0FF"/>
    </linearGradient>
  </defs>
  <rect width="1200" height="800" rx="48" fill="url(#bg)"/>
  <rect x="48" y="48" width="1104" height="704" rx="36" fill="rgba(255,255,255,0.03)" stroke="rgba(255,255,255,0.08)"/>
  <circle cx="988" cy="192" r="148" fill="url(#accent)" opacity="0.18"/>
  <circle cx="248" cy="584" r="202" fill="url(#accent)" opacity="0.09"/>
  <rect x="96" y="108" width="320" height="42" rx="21" fill="rgba(79,140,255,0.14)" stroke="rgba(79,140,255,0.32)"/>
  <text x="124" y="137" fill="#DDEBFF" font-family="Inter, ui-sans-serif, system-ui" font-size="20" font-weight="700">Deploy on Base</text>
  <text x="96" y="248" fill="#FFFFFF" font-family="Inter, ui-sans-serif, system-ui" font-size="78" font-weight="800">Simple form.</text>
  <text x="96" y="336" fill="#FFFFFF" font-family="Inter, ui-sans-serif, system-ui" font-size="78" font-weight="800">Remix-style deploy.</text>
  <text x="96" y="404" fill="#9FB0D6" font-family="Inter, ui-sans-serif, system-ui" font-size="30" font-weight="500">Deploy contracts on Base from a fast Farcaster mini app.</text>
  <rect x="96" y="476" width="296" height="84" rx="22" fill="rgba(255,255,255,0.05)" stroke="rgba(255,255,255,0.08)"/>
  <rect x="124" y="506" width="148" height="16" rx="8" fill="rgba(79,140,255,0.75)"/>
  <rect x="124" y="530" width="196" height="12" rx="6" fill="rgba(255,255,255,0.16)"/>
  <rect x="108" y="608" width="300" height="12" rx="6" fill="rgba(255,255,255,0.08)"/>
  <rect x="108" y="632" width="248" height="12" rx="6" fill="rgba(255,255,255,0.08)"/>
  <rect x="108" y="656" width="204" height="12" rx="6" fill="rgba(255,255,255,0.08)"/>
  <rect x="648" y="146" width="424" height="468" rx="28" fill="#0D1728" stroke="rgba(255,255,255,0.08)"/>
  <rect x="688" y="186" width="228" height="28" rx="14" fill="rgba(79,140,255,0.14)"/>
  <text x="708" y="206" fill="#DDEBFF" font-family="Inter, ui-sans-serif, system-ui" font-size="16" font-weight="700">Generated contract</text>
  <rect x="688" y="238" width="344" height="18" rx="9" fill="rgba(255,255,255,0.08)"/>
  <rect x="688" y="270" width="312" height="18" rx="9" fill="rgba(255,255,255,0.08)"/>
  <rect x="688" y="302" width="328" height="18" rx="9" fill="rgba(255,255,255,0.08)"/>
  <rect x="688" y="334" width="260" height="18" rx="9" fill="rgba(255,255,255,0.08)"/>
  <rect x="688" y="388" width="220" height="42" rx="21" fill="url(#accent)"/>
  <text x="716" y="416" fill="#08111F" font-family="Inter, ui-sans-serif, system-ui" font-size="16" font-weight="800">Compile → Deploy</text>
  <text x="688" y="484" fill="#9FB0D6" font-family="Inter, ui-sans-serif, system-ui" font-size="18" font-weight="500">Base mainnet • wallet connect • contract address • tx hash</text>
</svg>
